%TF.GenerationSoftware,KiCad,Pcbnew,(6.0.10)*%
%TF.CreationDate,2022-12-29T01:24:58+02:00*%
%TF.ProjectId,fudim,66756469-6d2e-46b6-9963-61645f706362,v1.0.0*%
%TF.SameCoordinates,Original*%
%TF.FileFunction,Paste,Bot*%
%TF.FilePolarity,Positive*%
%FSLAX46Y46*%
G04 Gerber Fmt 4.6, Leading zero omitted, Abs format (unit mm)*
G04 Created by KiCad (PCBNEW (6.0.10)) date 2022-12-29 01:24:58*
%MOMM*%
%LPD*%
G01*
G04 APERTURE LIST*
G04 Aperture macros list*
%AMRotRect*
0 Rectangle, with rotation*
0 The origin of the aperture is its center*
0 $1 length*
0 $2 width*
0 $3 Rotation angle, in degrees counterclockwise*
0 Add horizontal line*
21,1,$1,$2,0,0,$3*%
G04 Aperture macros list end*
%ADD10RotRect,2.600000X2.600000X318.000000*%
%ADD11RotRect,2.600000X2.600000X308.000000*%
%ADD12RotRect,2.600000X2.600000X353.000000*%
%ADD13RotRect,2.600000X2.600000X354.000000*%
%ADD14RotRect,0.900000X1.700000X263.000000*%
%ADD15R,2.600000X2.600000*%
%ADD16RotRect,2.600000X2.600000X356.000000*%
%ADD17RotRect,2.600000X2.600000X355.000000*%
%ADD18RotRect,1.000000X0.800000X83.000000*%
%ADD19RotRect,0.700000X1.500000X83.000000*%
%ADD20RotRect,2.600000X2.600000X328.000000*%
G04 APERTURE END LIST*
D10*
%TO.C,S33*%
X103400637Y-36966000D03*
X110511872Y-46329377D03*
%TD*%
D11*
%TO.C,S35*%
X118927089Y-52724596D03*
X124304355Y-63180575D03*
%TD*%
D12*
%TO.C,S27*%
X93057094Y21251162D03*
X104252889Y17659969D03*
%TD*%
D13*
%TO.C,S23*%
X76056360Y45105236D03*
X87313125Y41709984D03*
%TD*%
D14*
%TO.C,*%
X130781388Y10322264D03*
X130367032Y6947608D03*
%TD*%
D12*
%TO.C,S29*%
X95128873Y38124447D03*
X106324668Y34533254D03*
%TD*%
D15*
%TO.C,S5*%
X14725000Y39950000D03*
X26275000Y37750000D03*
%TD*%
D16*
%TO.C,S9*%
X35833889Y33122548D03*
X47202289Y30122219D03*
%TD*%
D15*
%TO.C,S1*%
X14725000Y5950000D03*
X26275000Y3750000D03*
%TD*%
D16*
%TO.C,S11*%
X37019749Y50081137D03*
X48388149Y47080808D03*
%TD*%
D17*
%TO.C,S17*%
X56952077Y52748297D03*
X68266383Y49550019D03*
%TD*%
D18*
%TO.C,*%
X131211006Y24324277D03*
X132514887Y16809358D03*
X130321360Y17078690D03*
X133404533Y24054945D03*
D19*
X130395234Y23013927D03*
X130029626Y20036289D03*
X129846822Y18547469D03*
%TD*%
D20*
%TO.C,S31*%
X85267632Y-24312560D03*
X93896765Y-32298834D03*
%TD*%
D16*
%TO.C,S7*%
X34648029Y16163959D03*
X46016429Y13163630D03*
%TD*%
D17*
%TO.C,S15*%
X55470429Y35812987D03*
X66784735Y32614709D03*
%TD*%
D13*
%TO.C,S21*%
X74279377Y28198364D03*
X85536142Y24803112D03*
%TD*%
D15*
%TO.C,S3*%
X14725000Y22950000D03*
X26275000Y20750000D03*
%TD*%
D17*
%TO.C,S13*%
X53988782Y18877677D03*
X65303088Y15679399D03*
%TD*%
D13*
%TO.C,S19*%
X72502393Y11291492D03*
X83759158Y7896240D03*
%TD*%
D12*
%TO.C,S25*%
X90985315Y4377878D03*
X102181110Y786685D03*
%TD*%
M02*
