%TF.GenerationSoftware,KiCad,Pcbnew,(6.0.10)*%
%TF.CreationDate,2022-12-29T01:24:59+02:00*%
%TF.ProjectId,fudim,66756469-6d2e-46b6-9963-61645f706362,v1.0.0*%
%TF.SameCoordinates,Original*%
%TF.FileFunction,Soldermask,Bot*%
%TF.FilePolarity,Negative*%
%FSLAX46Y46*%
G04 Gerber Fmt 4.6, Leading zero omitted, Abs format (unit mm)*
G04 Created by KiCad (PCBNEW (6.0.10)) date 2022-12-29 01:24:59*
%MOMM*%
%LPD*%
G01*
G04 APERTURE LIST*
G04 Aperture macros list*
%AMRotRect*
0 Rectangle, with rotation*
0 The origin of the aperture is its center*
0 $1 length*
0 $2 width*
0 $3 Rotation angle, in degrees counterclockwise*
0 Add horizontal line*
21,1,$1,$2,0,0,$3*%
%AMFreePoly0*
4,1,6,0.600000,0.200000,0.000000,-0.400000,-0.600000,0.200000,-0.600000,0.400000,0.600000,0.400000,0.600000,0.200000,0.600000,0.200000,$1*%
%AMFreePoly1*
4,1,6,0.600000,-0.250000,-0.600000,-0.250000,-0.600000,1.000000,0.000000,0.400000,0.600000,1.000000,0.600000,-0.250000,0.600000,-0.250000,$1*%
G04 Aperture macros list end*
%ADD10C,0.250000*%
%ADD11C,0.100000*%
%ADD12C,1.000000*%
%ADD13C,1.701800*%
%ADD14C,3.429000*%
%ADD15C,3.000000*%
%ADD16RotRect,2.600000X2.600000X318.000000*%
%ADD17C,2.032000*%
%ADD18RotRect,2.600000X2.600000X308.000000*%
%ADD19FreePoly0,263.000000*%
%ADD20FreePoly0,83.000000*%
%ADD21C,1.600000*%
%ADD22RotRect,1.600000X1.600000X263.000000*%
%ADD23FreePoly1,83.000000*%
%ADD24FreePoly1,263.000000*%
%ADD25RotRect,2.600000X2.600000X353.000000*%
%ADD26RotRect,2.600000X2.600000X354.000000*%
%ADD27RotRect,0.900000X1.700000X263.000000*%
%ADD28R,2.600000X2.600000*%
%ADD29RotRect,2.600000X2.600000X356.000000*%
%ADD30RotRect,2.600000X2.600000X355.000000*%
%ADD31RotRect,1.000000X0.800000X83.000000*%
%ADD32C,0.900000*%
%ADD33RotRect,0.700000X1.500000X83.000000*%
%ADD34RotRect,2.600000X2.600000X328.000000*%
G04 APERTURE END LIST*
D10*
%TO.C,MCU1*%
X117439257Y17668252D02*
G75*
G03*
X117439257Y17668252I-125001J0D01*
G01*
X119570993Y22524657D02*
G75*
G03*
X119570993Y22524657I-125000J0D01*
G01*
X116820160Y12626117D02*
G75*
G03*
X116820160Y12626117I-125000J0D01*
G01*
X117748805Y20189319D02*
G75*
G03*
X117748805Y20189319I-125001J0D01*
G01*
X115272419Y20781D02*
G75*
G03*
X115272419Y20781I-125000J0D01*
G01*
X115581967Y2541848D02*
G75*
G03*
X115581967Y2541848I-125000J0D01*
G01*
X115891516Y5062915D02*
G75*
G03*
X115891516Y5062915I-125000J0D01*
G01*
X118023252Y9919321D02*
G75*
G03*
X118023252Y9919321I-125000J0D01*
G01*
X114962872Y-2500286D02*
G75*
G03*
X114962872Y-2500286I-125001J0D01*
G01*
X118642348Y14961455D02*
G75*
G03*
X118642348Y14961455I-125000J0D01*
G01*
X116201065Y7583983D02*
G75*
G03*
X116201065Y7583983I-125001J0D01*
G01*
X119880541Y25045724D02*
G75*
G03*
X119880541Y25045724I-125000J0D01*
G01*
X116510612Y10105050D02*
G75*
G03*
X116510612Y10105050I-125000J0D01*
G01*
X116475511Y-2686015D02*
G75*
G03*
X116475511Y-2686015I-125000J0D01*
G01*
X118058352Y22710386D02*
G75*
G03*
X118058352Y22710386I-125000J0D01*
G01*
X119261445Y20003590D02*
G75*
G03*
X119261445Y20003590I-125000J0D01*
G01*
X116785060Y-164948D02*
G75*
G03*
X116785060Y-164948I-125000J0D01*
G01*
X117094608Y2356119D02*
G75*
G03*
X117094608Y2356119I-125000J0D01*
G01*
X118951897Y17482523D02*
G75*
G03*
X118951897Y17482523I-125001J0D01*
G01*
X117129708Y15147184D02*
G75*
G03*
X117129708Y15147184I-125000J0D01*
G01*
X117404156Y4877186D02*
G75*
G03*
X117404156Y4877186I-125000J0D01*
G01*
X118367901Y25231453D02*
G75*
G03*
X118367901Y25231453I-125000J0D01*
G01*
X118332800Y12440388D02*
G75*
G03*
X118332800Y12440388I-125000J0D01*
G01*
X117713705Y7398254D02*
G75*
G03*
X117713705Y7398254I-125001J0D01*
G01*
G36*
X123563951Y12294551D02*
G01*
X123440132Y11286124D01*
X122431705Y11409943D01*
X122555524Y12418370D01*
X123563951Y12294551D01*
G37*
D11*
X123563951Y12294551D02*
X123440132Y11286124D01*
X122431705Y11409943D01*
X122555524Y12418370D01*
X123563951Y12294551D01*
G36*
X122016210Y-310786D02*
G01*
X121892391Y-1319212D01*
X120883964Y-1195393D01*
X121007783Y-186966D01*
X122016210Y-310786D01*
G37*
X122016210Y-310786D02*
X121892391Y-1319212D01*
X120883964Y-1195393D01*
X121007783Y-186966D01*
X122016210Y-310786D01*
G36*
X110613966Y-1469841D02*
G01*
X110490147Y-2478268D01*
X109481720Y-2354449D01*
X109605540Y-1346022D01*
X110613966Y-1469841D01*
G37*
X110613966Y-1469841D02*
X110490147Y-2478268D01*
X109481720Y-2354449D01*
X109605540Y-1346022D01*
X110613966Y-1469841D01*
G36*
X124492595Y19857752D02*
G01*
X124368776Y18849325D01*
X123360349Y18973145D01*
X123484169Y19981571D01*
X124492595Y19857752D01*
G37*
X124492595Y19857752D02*
X124368776Y18849325D01*
X123360349Y18973145D01*
X123484169Y19981571D01*
X124492595Y19857752D01*
G36*
X111542611Y6093361D02*
G01*
X111418792Y5084934D01*
X110410365Y5208753D01*
X110534184Y6217180D01*
X111542611Y6093361D01*
G37*
X111542611Y6093361D02*
X111418792Y5084934D01*
X110410365Y5208753D01*
X110534184Y6217180D01*
X111542611Y6093361D01*
G36*
X123254403Y9773483D02*
G01*
X123130584Y8765056D01*
X122122157Y8888876D01*
X122245976Y9897303D01*
X123254403Y9773483D01*
G37*
X123254403Y9773483D02*
X123130584Y8765056D01*
X122122157Y8888876D01*
X122245976Y9897303D01*
X123254403Y9773483D01*
G36*
X122325759Y2210282D02*
G01*
X122201939Y1201855D01*
X121193512Y1325674D01*
X121317332Y2334101D01*
X122325759Y2210282D01*
G37*
X122325759Y2210282D02*
X122201939Y1201855D01*
X121193512Y1325674D01*
X121317332Y2334101D01*
X122325759Y2210282D01*
G36*
X122944855Y7252416D02*
G01*
X122821036Y6243989D01*
X121812609Y6367808D01*
X121936428Y7376235D01*
X122944855Y7252416D01*
G37*
X122944855Y7252416D02*
X122821036Y6243989D01*
X121812609Y6367808D01*
X121936428Y7376235D01*
X122944855Y7252416D01*
G36*
X111852159Y8614428D02*
G01*
X111728340Y7606001D01*
X110719913Y7729820D01*
X110843732Y8738247D01*
X111852159Y8614428D01*
G37*
X111852159Y8614428D02*
X111728340Y7606001D01*
X110719913Y7729820D01*
X110843732Y8738247D01*
X111852159Y8614428D01*
G36*
X111233063Y3572293D02*
G01*
X111109243Y2563867D01*
X110100817Y2687686D01*
X110224636Y3696113D01*
X111233063Y3572293D01*
G37*
X111233063Y3572293D02*
X111109243Y2563867D01*
X110100817Y2687686D01*
X110224636Y3696113D01*
X111233063Y3572293D01*
G36*
X124183047Y17336685D02*
G01*
X124059228Y16328258D01*
X123050801Y16452077D01*
X123174620Y17460504D01*
X124183047Y17336685D01*
G37*
X124183047Y17336685D02*
X124059228Y16328258D01*
X123050801Y16452077D01*
X123174620Y17460504D01*
X124183047Y17336685D01*
G36*
X113090352Y18698697D02*
G01*
X112966532Y17690270D01*
X111958105Y17814089D01*
X112081925Y18822516D01*
X113090352Y18698697D01*
G37*
X113090352Y18698697D02*
X112966532Y17690270D01*
X111958105Y17814089D01*
X112081925Y18822516D01*
X113090352Y18698697D01*
G36*
X113399900Y21219764D02*
G01*
X113276080Y20211337D01*
X112267653Y20335156D01*
X112391473Y21343583D01*
X113399900Y21219764D01*
G37*
X113399900Y21219764D02*
X113276080Y20211337D01*
X112267653Y20335156D01*
X112391473Y21343583D01*
X113399900Y21219764D01*
G36*
X114018996Y26261898D02*
G01*
X113895177Y25253472D01*
X112886750Y25377291D01*
X113010569Y26385718D01*
X114018996Y26261898D01*
G37*
X114018996Y26261898D02*
X113895177Y25253472D01*
X112886750Y25377291D01*
X113010569Y26385718D01*
X114018996Y26261898D01*
G36*
X113709448Y23740831D02*
G01*
X113585629Y22732404D01*
X112577202Y22856224D01*
X112701021Y23864650D01*
X113709448Y23740831D01*
G37*
X113709448Y23740831D02*
X113585629Y22732404D01*
X112577202Y22856224D01*
X112701021Y23864650D01*
X113709448Y23740831D01*
G36*
X123873499Y14815618D02*
G01*
X123749680Y13807191D01*
X122741253Y13931010D01*
X122865072Y14939437D01*
X123873499Y14815618D01*
G37*
X123873499Y14815618D02*
X123749680Y13807191D01*
X122741253Y13931010D01*
X122865072Y14939437D01*
X123873499Y14815618D01*
G36*
X121706662Y-2831853D02*
G01*
X121582843Y-3840280D01*
X120574416Y-3716460D01*
X120698235Y-2708034D01*
X121706662Y-2831853D01*
G37*
X121706662Y-2831853D02*
X121582843Y-3840280D01*
X120574416Y-3716460D01*
X120698235Y-2708034D01*
X121706662Y-2831853D01*
G36*
X110923515Y1051226D02*
G01*
X110799695Y42799D01*
X109791268Y166619D01*
X109915088Y1175045D01*
X110923515Y1051226D01*
G37*
X110923515Y1051226D02*
X110799695Y42799D01*
X109791268Y166619D01*
X109915088Y1175045D01*
X110923515Y1051226D01*
G36*
X124802144Y22378819D02*
G01*
X124678324Y21370393D01*
X123669897Y21494212D01*
X123793717Y22502639D01*
X124802144Y22378819D01*
G37*
X124802144Y22378819D02*
X124678324Y21370393D01*
X123669897Y21494212D01*
X123793717Y22502639D01*
X124802144Y22378819D01*
G36*
X122635307Y4731349D02*
G01*
X122511487Y3722922D01*
X121503060Y3846741D01*
X121626880Y4855168D01*
X122635307Y4731349D01*
G37*
X122635307Y4731349D02*
X122511487Y3722922D01*
X121503060Y3846741D01*
X121626880Y4855168D01*
X122635307Y4731349D01*
G36*
X112780803Y16177630D02*
G01*
X112656984Y15169203D01*
X111648557Y15293022D01*
X111772376Y16301449D01*
X112780803Y16177630D01*
G37*
X112780803Y16177630D02*
X112656984Y15169203D01*
X111648557Y15293022D01*
X111772376Y16301449D01*
X112780803Y16177630D01*
G36*
X112471255Y13656562D02*
G01*
X112347436Y12648135D01*
X111339009Y12771955D01*
X111462828Y13780382D01*
X112471255Y13656562D01*
G37*
X112471255Y13656562D02*
X112347436Y12648135D01*
X111339009Y12771955D01*
X111462828Y13780382D01*
X112471255Y13656562D01*
G36*
X112161707Y11135495D02*
G01*
X112037888Y10127068D01*
X111029461Y10250887D01*
X111153280Y11259314D01*
X112161707Y11135495D01*
G37*
X112161707Y11135495D02*
X112037888Y10127068D01*
X111029461Y10250887D01*
X111153280Y11259314D01*
X112161707Y11135495D01*
G36*
X125111692Y24899887D02*
G01*
X124987872Y23891460D01*
X123979446Y24015279D01*
X124103265Y25023706D01*
X125111692Y24899887D01*
G37*
X125111692Y24899887D02*
X124987872Y23891460D01*
X123979446Y24015279D01*
X124103265Y25023706D01*
X125111692Y24899887D01*
%TO.C,*%
G36*
X108981824Y-25345282D02*
G01*
X109084114Y-25066045D01*
X109229069Y-24770914D01*
X109400927Y-24530402D01*
X109616057Y-24327779D01*
X109890827Y-24146314D01*
X110083955Y-24044176D01*
X110524197Y-23826196D01*
X110995320Y-23847226D01*
X111314112Y-23872115D01*
X111587320Y-23921280D01*
X111842762Y-24003451D01*
X112108258Y-24127355D01*
X112377338Y-24280885D01*
X112554036Y-24391344D01*
X112675513Y-24480322D01*
X112761979Y-24566935D01*
X112833648Y-24670297D01*
X112884651Y-24760656D01*
X112968801Y-24945424D01*
X113045051Y-25161621D01*
X113087524Y-25321980D01*
X113112888Y-25458148D01*
X113126151Y-25583606D01*
X113127090Y-25720120D01*
X113115481Y-25889449D01*
X113091105Y-26113358D01*
X113078364Y-26217951D01*
X113048213Y-26455062D01*
X113022191Y-26627588D01*
X112994320Y-26756014D01*
X112958620Y-26860821D01*
X112909112Y-26962493D01*
X112839817Y-27081515D01*
X112813709Y-27124599D01*
X112561162Y-27465418D01*
X112264269Y-27735011D01*
X111929344Y-27931236D01*
X111562701Y-28051947D01*
X111170652Y-28095003D01*
X110759511Y-28058259D01*
X110372973Y-27953260D01*
X109936849Y-27760820D01*
X109572562Y-27523307D01*
X109281653Y-27244177D01*
X109065669Y-26926890D01*
X108926151Y-26574899D01*
X108864642Y-26191664D01*
X108873433Y-25991403D01*
X110329183Y-25991403D01*
X110349990Y-26098524D01*
X110405875Y-26214885D01*
X110483775Y-26315137D01*
X110570625Y-26373930D01*
X110593875Y-26379402D01*
X110656359Y-26367108D01*
X110726227Y-26340965D01*
X110847768Y-26314549D01*
X110929664Y-26317776D01*
X111046217Y-26313483D01*
X111118686Y-26286852D01*
X111175248Y-26207507D01*
X111188762Y-26084532D01*
X111161664Y-25946891D01*
X111096387Y-25823553D01*
X111077946Y-25802063D01*
X110986689Y-25705138D01*
X110880871Y-25592811D01*
X110865414Y-25576410D01*
X110774915Y-25493874D01*
X110705486Y-25471260D01*
X110658759Y-25483419D01*
X110540143Y-25566354D01*
X110449917Y-25685790D01*
X110417251Y-25785770D01*
X110386725Y-25880098D01*
X110356520Y-25918869D01*
X110329183Y-25991403D01*
X108873433Y-25991403D01*
X108879002Y-25864529D01*
X108882685Y-25780640D01*
X108981824Y-25345282D01*
G37*
G36*
X107222558Y-27965685D02*
G01*
X107280600Y-28412458D01*
X107370483Y-28875745D01*
X107484099Y-29317910D01*
X107573333Y-29594483D01*
X107627512Y-29751426D01*
X107667544Y-29877520D01*
X107686638Y-29951021D01*
X107687308Y-29959177D01*
X107647299Y-29981726D01*
X107548643Y-29981175D01*
X107414154Y-29960942D01*
X107266647Y-29924444D01*
X107130438Y-29875754D01*
X106853629Y-29715529D01*
X106636198Y-29505937D01*
X106484949Y-29257468D01*
X106406690Y-28980608D01*
X106400730Y-28751284D01*
X106453126Y-28430219D01*
X106557991Y-28162993D01*
X106725825Y-27928760D01*
X106898939Y-27762545D01*
X107181550Y-27522558D01*
X107222558Y-27965685D01*
G37*
G36*
X120321728Y-28798654D02*
G01*
X120406801Y-28854794D01*
X120470047Y-28904497D01*
X120612418Y-29069318D01*
X120728999Y-29293177D01*
X120813593Y-29551719D01*
X120860002Y-29820584D01*
X120862026Y-30075415D01*
X120819270Y-30276771D01*
X120696896Y-30492779D01*
X120513700Y-30668563D01*
X120291550Y-30785314D01*
X120198227Y-30810958D01*
X120018036Y-30834599D01*
X119832089Y-30837991D01*
X119672132Y-30821960D01*
X119582617Y-30794898D01*
X119574191Y-30747030D01*
X119607967Y-30631832D01*
X119684799Y-30446628D01*
X119713792Y-30382629D01*
X119916145Y-29905155D01*
X120083419Y-29434812D01*
X120187066Y-29073917D01*
X120225175Y-28932667D01*
X120258463Y-28828166D01*
X120278292Y-28785284D01*
X120321728Y-28798654D01*
G37*
G36*
X113946466Y-18722086D02*
G01*
X114551542Y-18772664D01*
X115182946Y-18874628D01*
X115855562Y-19029033D01*
X116349481Y-19166112D01*
X116828321Y-19322148D01*
X117305938Y-19505913D01*
X117767068Y-19709964D01*
X118196445Y-19926857D01*
X118578803Y-20149148D01*
X118898877Y-20369398D01*
X119022723Y-20469463D01*
X119141607Y-20582046D01*
X119295529Y-20742787D01*
X119466718Y-20932388D01*
X119637406Y-21131553D01*
X119680892Y-21184210D01*
X119840260Y-21380507D01*
X119955569Y-21530051D01*
X120037635Y-21651867D01*
X120097278Y-21764981D01*
X120145317Y-21888420D01*
X120192569Y-22041208D01*
X120217293Y-22127545D01*
X120286419Y-22354522D01*
X120366360Y-22591805D01*
X120444148Y-22801727D01*
X120476689Y-22881182D01*
X120547105Y-23067048D01*
X120604438Y-23257955D01*
X120636651Y-23413635D01*
X120637200Y-23418153D01*
X120668982Y-23573840D01*
X120726737Y-23764086D01*
X120795835Y-23942586D01*
X120849532Y-24075079D01*
X120891091Y-24208470D01*
X120924281Y-24361762D01*
X120952869Y-24553959D01*
X120980622Y-24804063D01*
X120993966Y-24941876D01*
X121028655Y-25533336D01*
X121022277Y-26112655D01*
X120976117Y-26662167D01*
X120891460Y-27164207D01*
X120809338Y-27480036D01*
X120729172Y-27723824D01*
X120644121Y-27952237D01*
X120560439Y-28151116D01*
X120484377Y-28306310D01*
X120422186Y-28403662D01*
X120389821Y-28429921D01*
X120372741Y-28393334D01*
X120364222Y-28277186D01*
X120364422Y-28087169D01*
X120373493Y-27828980D01*
X120380730Y-27156676D01*
X120334593Y-26527971D01*
X120231747Y-25916926D01*
X120068861Y-25297608D01*
X120033709Y-25185745D01*
X119823975Y-24626028D01*
X119563670Y-24085146D01*
X119263041Y-23580778D01*
X118932334Y-23130607D01*
X118678094Y-22846646D01*
X118484017Y-22661155D01*
X118238263Y-22444181D01*
X117960478Y-22211686D01*
X117670312Y-21979634D01*
X117387412Y-21763989D01*
X117131426Y-21580714D01*
X117063798Y-21535081D01*
X116656272Y-21299060D01*
X116191303Y-21088588D01*
X115695812Y-20914335D01*
X115196723Y-20786970D01*
X115154984Y-20778645D01*
X114538265Y-20674230D01*
X113979595Y-20615133D01*
X113463806Y-20602195D01*
X112975735Y-20636256D01*
X112500215Y-20718156D01*
X112022080Y-20848736D01*
X111672338Y-20971596D01*
X111064397Y-21238508D01*
X110493800Y-21565243D01*
X109938955Y-21964246D01*
X109909307Y-21987862D01*
X109460662Y-22366309D01*
X109077521Y-22734378D01*
X108744374Y-23109525D01*
X108445707Y-23509205D01*
X108168446Y-23946725D01*
X107835642Y-24574242D01*
X107579539Y-25200853D01*
X107393549Y-25845685D01*
X107271083Y-26527868D01*
X107266110Y-26566450D01*
X107233786Y-26812604D01*
X107207090Y-26986979D01*
X107182764Y-27103002D01*
X107157545Y-27174095D01*
X107128176Y-27213685D01*
X107105236Y-27228925D01*
X107051981Y-27243423D01*
X107003850Y-27215070D01*
X106943972Y-27129955D01*
X106905923Y-27064533D01*
X106797873Y-26845664D01*
X106687742Y-26574993D01*
X106587199Y-26285272D01*
X106507918Y-26009254D01*
X106472477Y-25848148D01*
X106443793Y-25537073D01*
X106458107Y-25158510D01*
X106459982Y-25137609D01*
X106484169Y-24917288D01*
X106515746Y-24746573D01*
X106564264Y-24589435D01*
X106639273Y-24409840D01*
X106671614Y-24339188D01*
X106788708Y-24097666D01*
X106891407Y-23915129D01*
X106993773Y-23769756D01*
X107109863Y-23639732D01*
X107144625Y-23605166D01*
X107265014Y-23469898D01*
X107354502Y-23320612D01*
X107423176Y-23134899D01*
X107481125Y-22890357D01*
X107492160Y-22833248D01*
X107578250Y-22463944D01*
X107695180Y-22089333D01*
X107831200Y-21744458D01*
X107916524Y-21567456D01*
X108150440Y-21197346D01*
X108454182Y-20834183D01*
X108812359Y-20493641D01*
X109209579Y-20191392D01*
X109367709Y-20089746D01*
X109568507Y-19962541D01*
X109787049Y-19817006D01*
X109980867Y-19681521D01*
X110007068Y-19662436D01*
X110360238Y-19440568D01*
X110779770Y-19245862D01*
X111270459Y-19076535D01*
X111837098Y-18930801D01*
X112140379Y-18868144D01*
X112755769Y-18770881D01*
X113352837Y-18721844D01*
X113946466Y-18722086D01*
G37*
G36*
X108096912Y-30022313D02*
G01*
X107849641Y-29361103D01*
X107666963Y-28669445D01*
X107569599Y-28093967D01*
X107550055Y-27832932D01*
X107547201Y-27512139D01*
X107559406Y-27155514D01*
X107585038Y-26786983D01*
X107622468Y-26430472D01*
X107651544Y-26234639D01*
X108537483Y-26234639D01*
X108554337Y-26417257D01*
X108652639Y-26807783D01*
X108830070Y-27170512D01*
X109083577Y-27501813D01*
X109410103Y-27798058D01*
X109806592Y-28055618D01*
X110028538Y-28168023D01*
X110440940Y-28327720D01*
X110837219Y-28412074D01*
X111235496Y-28424267D01*
X111402694Y-28409255D01*
X111569256Y-28371560D01*
X112994553Y-28371560D01*
X113017530Y-28523870D01*
X113052867Y-28624135D01*
X113176164Y-28878876D01*
X113317693Y-29082624D01*
X113465820Y-29218922D01*
X113479578Y-29227622D01*
X113608628Y-29293468D01*
X113724202Y-29313445D01*
X113863803Y-29291038D01*
X113937412Y-29270192D01*
X114109660Y-29189016D01*
X114229311Y-29059575D01*
X114303507Y-28870922D01*
X114335868Y-28659365D01*
X114343958Y-28395584D01*
X114321473Y-28180458D01*
X114271256Y-28022466D01*
X114196149Y-27930083D01*
X114098994Y-27911784D01*
X114086197Y-27914909D01*
X114014570Y-27958637D01*
X113986322Y-28045627D01*
X113998089Y-28190795D01*
X114009957Y-28252941D01*
X114026550Y-28419510D01*
X114017523Y-28603339D01*
X113987031Y-28774684D01*
X113939230Y-28903803D01*
X113914077Y-28939264D01*
X113822761Y-28979598D01*
X113703199Y-28959909D01*
X113583089Y-28885054D01*
X113577995Y-28880354D01*
X113510695Y-28793462D01*
X113431489Y-28657210D01*
X113363820Y-28515158D01*
X113297836Y-28369285D01*
X113246264Y-28287005D01*
X113194544Y-28251293D01*
X113132776Y-28244973D01*
X113032990Y-28278492D01*
X112994553Y-28371560D01*
X111569256Y-28371560D01*
X111805173Y-28318169D01*
X111901765Y-28275953D01*
X112190739Y-28149656D01*
X112545856Y-27911887D01*
X112856997Y-27613033D01*
X112983632Y-27454559D01*
X113116675Y-27259558D01*
X113217389Y-27075368D01*
X113292063Y-26882302D01*
X113346987Y-26660673D01*
X113388451Y-26390792D01*
X113401609Y-26263327D01*
X114272650Y-26263327D01*
X114285151Y-26685261D01*
X114365021Y-27097088D01*
X114512627Y-27486168D01*
X114728332Y-27839862D01*
X114796646Y-27925695D01*
X115085738Y-28210015D01*
X115430284Y-28450381D01*
X115813411Y-28640343D01*
X116218244Y-28773453D01*
X116627912Y-28843262D01*
X117025537Y-28843321D01*
X117153748Y-28826516D01*
X117555230Y-28716620D01*
X117926907Y-28529765D01*
X118260127Y-28272006D01*
X118546239Y-27949397D01*
X118668460Y-27766435D01*
X118790675Y-27549738D01*
X118881269Y-27347901D01*
X118946936Y-27137826D01*
X118994370Y-26896415D01*
X119030265Y-26600570D01*
X119041357Y-26479699D01*
X119058469Y-26058485D01*
X119028617Y-25692194D01*
X118948044Y-25361781D01*
X118812994Y-25048196D01*
X118730165Y-24902083D01*
X118599592Y-24732239D01*
X118417450Y-24574004D01*
X118173732Y-24420415D01*
X117858428Y-24264508D01*
X117737618Y-24211644D01*
X117515890Y-24123480D01*
X117327875Y-24067155D01*
X117132762Y-24032268D01*
X116964094Y-24014507D01*
X116661263Y-23993684D01*
X116417251Y-23993312D01*
X116206729Y-24017769D01*
X116004370Y-24071436D01*
X115784847Y-24158693D01*
X115585346Y-24252920D01*
X115350900Y-24373635D01*
X115174874Y-24479129D01*
X115035472Y-24584251D01*
X114910900Y-24703849D01*
X114889047Y-24727322D01*
X114635719Y-25063285D01*
X114448300Y-25439700D01*
X114327156Y-25843926D01*
X114272650Y-26263327D01*
X113401609Y-26263327D01*
X113409405Y-26187803D01*
X113419453Y-26090458D01*
X113440914Y-25841497D01*
X113453248Y-25657687D01*
X113455409Y-25518891D01*
X113446349Y-25404975D01*
X113425021Y-25295805D01*
X113390375Y-25171246D01*
X113367765Y-25097013D01*
X113299357Y-24900483D01*
X113218293Y-24705397D01*
X113140454Y-24549493D01*
X113129477Y-24530896D01*
X112974112Y-24337119D01*
X112745949Y-24139077D01*
X112456853Y-23945588D01*
X112118685Y-23765471D01*
X112067830Y-23741699D01*
X111916844Y-23674303D01*
X111791144Y-23626027D01*
X111668323Y-23591770D01*
X111525973Y-23566433D01*
X111341689Y-23544913D01*
X111109631Y-23523558D01*
X110512251Y-23471294D01*
X110023946Y-23707331D01*
X109680082Y-23889606D01*
X109405455Y-24076611D01*
X109184471Y-24285009D01*
X109001539Y-24531461D01*
X108841064Y-24832632D01*
X108733015Y-25086773D01*
X108615987Y-25462332D01*
X108549433Y-25855205D01*
X108537483Y-26234639D01*
X107651544Y-26234639D01*
X107670063Y-26109907D01*
X107721434Y-25867263D01*
X107747447Y-25785040D01*
X107954450Y-25130730D01*
X108261574Y-24436927D01*
X108642461Y-23786506D01*
X108888670Y-23457879D01*
X109119126Y-23457879D01*
X109125971Y-23521997D01*
X109176067Y-23582115D01*
X109278550Y-23587276D01*
X109436811Y-23536728D01*
X109654244Y-23429714D01*
X109729290Y-23387760D01*
X109945883Y-23268879D01*
X109974363Y-23255835D01*
X116462220Y-23255835D01*
X116478210Y-23322957D01*
X116521249Y-23369125D01*
X116617596Y-23416047D01*
X116778901Y-23468520D01*
X116932704Y-23510094D01*
X117121741Y-23557161D01*
X117288493Y-23595834D01*
X117409761Y-23620878D01*
X117451377Y-23627212D01*
X117527640Y-23650286D01*
X117659251Y-23706040D01*
X117826601Y-23785674D01*
X117980746Y-23864742D01*
X118201414Y-23977943D01*
X118361901Y-24049276D01*
X118474961Y-24081816D01*
X118553345Y-24078631D01*
X118609809Y-24042793D01*
X118628559Y-24020739D01*
X118651135Y-23954519D01*
X118616956Y-23881390D01*
X118519802Y-23795627D01*
X118353450Y-23691507D01*
X118155652Y-23585653D01*
X117988925Y-23509604D01*
X117779191Y-23427697D01*
X117543801Y-23345196D01*
X117300103Y-23267369D01*
X117065444Y-23199481D01*
X116857177Y-23146798D01*
X116692647Y-23114584D01*
X116589207Y-23108106D01*
X116584500Y-23108787D01*
X116492353Y-23159794D01*
X116462220Y-23255835D01*
X109974363Y-23255835D01*
X110121916Y-23188254D01*
X110288074Y-23136568D01*
X110475039Y-23104503D01*
X110713495Y-23082742D01*
X110739892Y-23080875D01*
X110942587Y-23061662D01*
X111074100Y-23034036D01*
X111148877Y-22992232D01*
X111181362Y-22930479D01*
X111185423Y-22902985D01*
X111169097Y-22818532D01*
X111128383Y-22789185D01*
X111097066Y-22766611D01*
X110961376Y-22744955D01*
X110754077Y-22751297D01*
X110677671Y-22758226D01*
X110376279Y-22797293D01*
X110126636Y-22853667D01*
X109895064Y-22938200D01*
X109647892Y-23061746D01*
X109532107Y-23127426D01*
X109341205Y-23241957D01*
X109215930Y-23328226D01*
X109145498Y-23396708D01*
X109119126Y-23457879D01*
X108888670Y-23457879D01*
X108902846Y-23438957D01*
X109096769Y-23180118D01*
X109207730Y-23051334D01*
X109409876Y-22841841D01*
X109665403Y-22606288D01*
X109953575Y-22361568D01*
X110253653Y-22124579D01*
X110544903Y-21912216D01*
X110806589Y-21741377D01*
X110839153Y-21722046D01*
X111113298Y-21575291D01*
X111433441Y-21425696D01*
X111772333Y-21284394D01*
X112102735Y-21162521D01*
X112397397Y-21071213D01*
X112487078Y-21048529D01*
X113001867Y-20955365D01*
X113520670Y-20918422D01*
X114061407Y-20937759D01*
X114641999Y-21013433D01*
X114872725Y-21056162D01*
X115328248Y-21156430D01*
X115735320Y-21269835D01*
X116108611Y-21403905D01*
X116462793Y-21566168D01*
X116812535Y-21764150D01*
X117172508Y-22005378D01*
X117557383Y-22297380D01*
X117981829Y-22647682D01*
X117992793Y-22657014D01*
X118479235Y-23117442D01*
X118894617Y-23612325D01*
X119243741Y-24149560D01*
X119531408Y-24737044D01*
X119762417Y-25382674D01*
X119856431Y-25722839D01*
X119941287Y-26084100D01*
X120000996Y-26407236D01*
X120037169Y-26715294D01*
X120051422Y-27031324D01*
X120045366Y-27378378D01*
X120020614Y-27779504D01*
X120009775Y-27913939D01*
X119967940Y-28347023D01*
X119918441Y-28715969D01*
X119856342Y-29042259D01*
X119776709Y-29347379D01*
X119674607Y-29652811D01*
X119545102Y-29980040D01*
X119523396Y-30031417D01*
X119204931Y-30675208D01*
X118822328Y-31264343D01*
X118379623Y-31796037D01*
X117880855Y-32267508D01*
X117330061Y-32675972D01*
X116731278Y-33018642D01*
X116088544Y-33292737D01*
X115405897Y-33495472D01*
X114687374Y-33624063D01*
X114255945Y-33663565D01*
X114052718Y-33666425D01*
X113787469Y-33656503D01*
X113482540Y-33635933D01*
X113160267Y-33606854D01*
X112842987Y-33571398D01*
X112553039Y-33531703D01*
X112312761Y-33489903D01*
X112217393Y-33468676D01*
X111826553Y-33357683D01*
X111419038Y-33216886D01*
X111016787Y-33055478D01*
X110641746Y-32882648D01*
X110315856Y-32707590D01*
X110147840Y-32601781D01*
X109643746Y-32208465D01*
X109182196Y-31746151D01*
X108770782Y-31226566D01*
X111432012Y-31226566D01*
X111446835Y-31281219D01*
X111483746Y-31332746D01*
X111548533Y-31355751D01*
X111656928Y-31350789D01*
X111824658Y-31318415D01*
X111912869Y-31297678D01*
X112213508Y-31234811D01*
X112507187Y-31196414D01*
X112819760Y-31180697D01*
X113177077Y-31185872D01*
X113383658Y-31195910D01*
X113779644Y-31228335D01*
X114173767Y-31278536D01*
X114546175Y-31342974D01*
X114877017Y-31418106D01*
X115146445Y-31500395D01*
X115195331Y-31519037D01*
X115359295Y-31561853D01*
X115471728Y-31540230D01*
X115529446Y-31455118D01*
X115535610Y-31417439D01*
X115501007Y-31339108D01*
X115389806Y-31258296D01*
X115210927Y-31177502D01*
X114973294Y-31099225D01*
X114685826Y-31025964D01*
X114357448Y-30960219D01*
X113997080Y-30904486D01*
X113613644Y-30861267D01*
X113521134Y-30853196D01*
X113305874Y-30838782D01*
X113100587Y-30830807D01*
X112933414Y-30830081D01*
X112856358Y-30834090D01*
X112439352Y-30879797D01*
X112102574Y-30926087D01*
X111840593Y-30974681D01*
X111647977Y-31027304D01*
X111519295Y-31085677D01*
X111449118Y-31151523D01*
X111432012Y-31226566D01*
X108770782Y-31226566D01*
X108767600Y-31222547D01*
X108615031Y-30980112D01*
X108404369Y-30645364D01*
X108096912Y-30022313D01*
G37*
G36*
X114760532Y-25548499D02*
G01*
X114901789Y-25237329D01*
X115082616Y-24983470D01*
X115312576Y-24773982D01*
X115601230Y-24595927D01*
X115655166Y-24568669D01*
X115817611Y-24486205D01*
X115950808Y-24413981D01*
X116035840Y-24362488D01*
X116055079Y-24346979D01*
X116108962Y-24333592D01*
X116232989Y-24327389D01*
X116411920Y-24328563D01*
X116630518Y-24337306D01*
X116666074Y-24339299D01*
X116915593Y-24355694D01*
X117102124Y-24373996D01*
X117248322Y-24398195D01*
X117376838Y-24432279D01*
X117510327Y-24480237D01*
X117545233Y-24494098D01*
X117801088Y-24608870D01*
X118039068Y-24737713D01*
X118242674Y-24870058D01*
X118395413Y-24995337D01*
X118473052Y-25088587D01*
X118612003Y-25399515D01*
X118700070Y-25759810D01*
X118737647Y-26150211D01*
X118725124Y-26551459D01*
X118662895Y-26944292D01*
X118551353Y-27309453D01*
X118422389Y-27576387D01*
X118234950Y-27832430D01*
X117992061Y-28072305D01*
X117719387Y-28274150D01*
X117442594Y-28416104D01*
X117431702Y-28420264D01*
X117295736Y-28466714D01*
X117172852Y-28493819D01*
X117035871Y-28504361D01*
X116857611Y-28501120D01*
X116715850Y-28493493D01*
X116452605Y-28471323D01*
X116246978Y-28437931D01*
X116071145Y-28388286D01*
X116011579Y-28366174D01*
X115600942Y-28171093D01*
X115264683Y-27935559D01*
X114999729Y-27655732D01*
X114803006Y-27327765D01*
X114671441Y-26947813D01*
X114612419Y-26615835D01*
X114593352Y-26409158D01*
X114594266Y-26243458D01*
X114603931Y-26173647D01*
X116334548Y-26173647D01*
X116375522Y-26285812D01*
X116453790Y-26410702D01*
X116549086Y-26522924D01*
X116641147Y-26597081D01*
X116684850Y-26612625D01*
X116776343Y-26597160D01*
X116898443Y-26549071D01*
X116940891Y-26527015D01*
X117074147Y-26418869D01*
X117167525Y-26277958D01*
X117208574Y-26129703D01*
X117191935Y-26014288D01*
X117120995Y-25934739D01*
X116994853Y-25859676D01*
X116843654Y-25800948D01*
X116697545Y-25770404D01*
X116591239Y-25778171D01*
X116478027Y-25853189D01*
X116385736Y-25973645D01*
X116335895Y-26106367D01*
X116334548Y-26173647D01*
X114603931Y-26173647D01*
X114617464Y-26075892D01*
X114643106Y-25958267D01*
X114649286Y-25929919D01*
X114760532Y-25548499D01*
G37*
%TD*%
D12*
%TO.C,*%
X122769221Y-9801296D03*
X122586417Y-11290116D03*
%TD*%
D13*
%TO.C,S33*%
X105940406Y-47259332D03*
D14*
X101853109Y-43579114D03*
D15*
X108078073Y-44137974D03*
X105834436Y-39157402D03*
D13*
X97765812Y-39898896D03*
D15*
X100646625Y-37446668D03*
X105834436Y-39157402D03*
D16*
X103400637Y-36966000D03*
X110511872Y-46329377D03*
%TD*%
D13*
%TO.C,S30*%
X92195335Y32489956D03*
D14*
X97654339Y31819675D03*
D13*
X103113343Y31149394D03*
D17*
X92228505Y28657346D03*
X102153966Y27438653D03*
X96935310Y25963653D03*
X96935310Y25963653D03*
%TD*%
D13*
%TO.C,S16*%
X52735319Y30079550D03*
D14*
X58214390Y29600193D03*
D13*
X63693461Y29120836D03*
D17*
X62864172Y25378874D03*
X52902225Y26250432D03*
X57700171Y23722644D03*
X57700171Y23722644D03*
%TD*%
D14*
%TO.C,S22*%
X76914492Y21938628D03*
D13*
X82384362Y21363721D03*
X71444622Y22513535D03*
D17*
X71544674Y18682087D03*
X81489893Y17636802D03*
X76297774Y16070949D03*
X76297774Y16070949D03*
%TD*%
D15*
%TO.C,S35*%
X120943380Y-55305331D03*
X116131449Y-52719733D03*
D14*
X116254716Y-58968517D03*
D15*
X120943380Y-55305331D03*
X122288064Y-60599840D03*
D13*
X119640854Y-63302576D03*
X112868578Y-54634458D03*
D18*
X118927089Y-52724596D03*
X124304355Y-63180575D03*
%TD*%
D13*
%TO.C,S20*%
X80607378Y4456849D03*
D14*
X75137508Y5031756D03*
D13*
X69667638Y5606663D03*
D17*
X79712909Y729930D03*
X69767690Y1775215D03*
X74520790Y-835923D03*
X74520790Y-835923D03*
%TD*%
D19*
%TO.C,MCU1*%
X123249935Y11821292D03*
D20*
X111653025Y13245213D03*
D21*
X125014682Y11604608D03*
D19*
X122940387Y9300225D03*
D21*
X111126471Y23546166D03*
X110507375Y18504031D03*
X126252874Y21688877D03*
X124705134Y9083541D03*
X125633778Y16646743D03*
X108959634Y5898695D03*
D19*
X123869031Y16863426D03*
D20*
X110414833Y3160944D03*
D21*
X108030990Y-1664506D03*
D20*
X113200766Y25850549D03*
X110724381Y5682012D03*
X111343477Y10724146D03*
X111962574Y15766281D03*
X110105285Y639877D03*
D21*
X109269182Y8419763D03*
X125943326Y19167810D03*
X109578730Y10940830D03*
X126562422Y24209944D03*
X123776489Y1520339D03*
X109888278Y13461897D03*
X111436019Y26067233D03*
D20*
X109795737Y-1881190D03*
D19*
X122321290Y4258090D03*
X124178579Y19384494D03*
D21*
X108650086Y3377628D03*
D19*
X121392646Y-3305111D03*
D22*
X126562422Y24209944D03*
D20*
X112581670Y20808415D03*
D21*
X108340538Y856561D03*
D20*
X112272122Y18287348D03*
D21*
X125324230Y14125675D03*
D19*
X123559483Y14342359D03*
D21*
X123466941Y-1000728D03*
D19*
X124797675Y24426628D03*
D21*
X124086037Y4041407D03*
X124395585Y6562474D03*
D19*
X124488127Y21905561D03*
D21*
X123157393Y-3521795D03*
D19*
X121702194Y-784044D03*
X122630838Y6779157D03*
D21*
X110816923Y21025099D03*
D20*
X112891218Y23329482D03*
D19*
X122011742Y1737023D03*
D21*
X110197827Y15982964D03*
D20*
X111033929Y8203079D03*
D23*
X114209193Y25726730D03*
X113899645Y23205663D03*
X113590097Y20684596D03*
X113280549Y18163529D03*
X112971000Y15642461D03*
X112661452Y13121394D03*
X112351904Y10600327D03*
X112042356Y8079260D03*
X111732808Y5558192D03*
X111423260Y3037125D03*
X111113712Y516058D03*
X110804164Y-2005009D03*
D24*
X120384219Y-3181292D03*
X120693767Y-660225D03*
X121003315Y1860842D03*
X121312863Y4381909D03*
X121622412Y6902977D03*
X121931960Y9424044D03*
X122241508Y11945111D03*
X122551056Y14466178D03*
X122860604Y16987246D03*
X123170152Y19508313D03*
X123479700Y22029380D03*
X123789248Y24550447D03*
%TD*%
D15*
%TO.C,S27*%
X96307683Y20852040D03*
D13*
X90123556Y15616671D03*
D15*
X96307683Y20852040D03*
X91076839Y19277785D03*
D14*
X95582560Y14946390D03*
D13*
X101041564Y14276109D03*
D15*
X101002301Y18059091D03*
D25*
X93057094Y21251162D03*
X104252889Y17659969D03*
%TD*%
D15*
%TO.C,S23*%
X74110847Y43097599D03*
X79313419Y44762905D03*
D14*
X78691475Y38845500D03*
D15*
X79313419Y44762905D03*
D13*
X73221605Y39420407D03*
X84161345Y38270593D03*
D15*
X84056066Y42052315D03*
D26*
X76056360Y45105236D03*
X87313125Y41709984D03*
%TD*%
D14*
%TO.C,S18*%
X59696038Y46535503D03*
D13*
X54216967Y47014860D03*
X65175109Y46056146D03*
D17*
X64345820Y42314184D03*
X54383873Y43185742D03*
X59181819Y40657954D03*
X59181819Y40657954D03*
%TD*%
D13*
%TO.C,S32*%
X89556235Y-34008488D03*
D14*
X84891970Y-31093932D03*
D13*
X80227705Y-28179376D03*
D17*
X87118517Y-36966111D03*
X78638036Y-31666918D03*
X81765446Y-36097416D03*
X81765446Y-36097416D03*
%TD*%
D13*
%TO.C,S2*%
X23500000Y0D03*
D14*
X18000000Y0D03*
D13*
X12500000Y0D03*
D17*
X23000000Y-3800000D03*
X13000000Y-3800000D03*
X18000000Y-5900000D03*
X18000000Y-5900000D03*
%TD*%
D13*
%TO.C,S10*%
X44172462Y26574928D03*
D14*
X38685860Y26958589D03*
D13*
X33199258Y27342250D03*
D17*
X33432965Y23516628D03*
X43408606Y22819063D03*
X38274297Y21072961D03*
X38274297Y21072961D03*
%TD*%
D13*
%TO.C,S12*%
X34385118Y44300839D03*
D14*
X39871720Y43917178D03*
D13*
X45358322Y43533517D03*
D17*
X34618825Y40475217D03*
X44594466Y39777652D03*
X39460157Y38031550D03*
X39460157Y38031550D03*
%TD*%
D27*
%TO.C,*%
X130781388Y10322264D03*
X130367032Y6947608D03*
%TD*%
D14*
%TO.C,S6*%
X18000000Y34000000D03*
D13*
X23500000Y34000000D03*
X12500000Y34000000D03*
D17*
X13000000Y30200000D03*
X23000000Y30200000D03*
X18000000Y28100000D03*
X18000000Y28100000D03*
%TD*%
D13*
%TO.C,S14*%
X51253672Y13144240D03*
D14*
X56732743Y12664883D03*
D13*
X62211814Y12185526D03*
D17*
X61382525Y8443564D03*
X51420578Y9315122D03*
X56218524Y6787334D03*
X56218524Y6787334D03*
%TD*%
D14*
%TO.C,S29*%
X97654339Y31819675D03*
D13*
X103113343Y31149394D03*
D15*
X98379462Y37725325D03*
X98379462Y37725325D03*
X103074080Y34932376D03*
D13*
X92195335Y32489956D03*
D15*
X93148618Y36151070D03*
D25*
X95128873Y38124447D03*
X106324668Y34533254D03*
%TD*%
D15*
%TO.C,S5*%
X13000000Y37750000D03*
D13*
X12500000Y34000000D03*
D15*
X18000000Y39950000D03*
D14*
X18000000Y34000000D03*
D13*
X23500000Y34000000D03*
D15*
X23000000Y37750000D03*
X18000000Y39950000D03*
D28*
X14725000Y39950000D03*
X26275000Y37750000D03*
%TD*%
D15*
%TO.C,S9*%
X33959627Y31048237D03*
X43935267Y30350672D03*
X39100911Y32894095D03*
D13*
X44172462Y26574928D03*
D15*
X39100911Y32894095D03*
D13*
X33199258Y27342250D03*
D14*
X38685860Y26958589D03*
D29*
X35833889Y33122548D03*
X47202289Y30122219D03*
%TD*%
D14*
%TO.C,S24*%
X78691475Y38845500D03*
D13*
X84161345Y38270593D03*
X73221605Y39420407D03*
D17*
X73321657Y35588959D03*
X83266876Y34543674D03*
X78074757Y32977821D03*
X78074757Y32977821D03*
%TD*%
D15*
%TO.C,S1*%
X18000000Y5950000D03*
X23000000Y3750000D03*
D14*
X18000000Y0D03*
D13*
X23500000Y0D03*
D15*
X18000000Y5950000D03*
D13*
X12500000Y0D03*
D15*
X13000000Y3750000D03*
D28*
X14725000Y5950000D03*
X26275000Y3750000D03*
%TD*%
D13*
%TO.C,S11*%
X45358322Y43533517D03*
D15*
X40286771Y49852684D03*
X40286771Y49852684D03*
D14*
X39871720Y43917178D03*
D15*
X35145487Y48006826D03*
D13*
X34385118Y44300839D03*
D15*
X45121127Y47309261D03*
D29*
X37019749Y50081137D03*
X48388149Y47080808D03*
%TD*%
D14*
%TO.C,S28*%
X95582560Y14946390D03*
D13*
X101041564Y14276109D03*
X90123556Y15616671D03*
D17*
X90156726Y11784061D03*
X100082187Y10565368D03*
X94863531Y9090368D03*
X94863531Y9090368D03*
%TD*%
D15*
%TO.C,S17*%
X60214615Y52462861D03*
D13*
X54216967Y47014860D03*
D15*
X60214615Y52462861D03*
X55041899Y50707012D03*
X65003846Y49835454D03*
D13*
X65175109Y46056146D03*
D14*
X59696038Y46535503D03*
D30*
X56952077Y52748297D03*
X68266383Y49550019D03*
%TD*%
D13*
%TO.C,S34*%
X97765812Y-39898896D03*
X105940406Y-47259332D03*
D14*
X101853109Y-43579114D03*
D17*
X95594689Y-43057411D03*
X103026137Y-49748717D03*
X97905238Y-47963668D03*
X97905238Y-47963668D03*
%TD*%
D31*
%TO.C,*%
X131211006Y24324277D03*
X132514887Y16809358D03*
D32*
X131685105Y19077389D03*
D31*
X130321360Y17078690D03*
D32*
X132050713Y22055027D03*
X132050713Y22055027D03*
X131685105Y19077389D03*
D31*
X133404533Y24054945D03*
D33*
X130395234Y23013927D03*
X130029626Y20036289D03*
X129846822Y18547469D03*
%TD*%
D14*
%TO.C,S26*%
X93510781Y-1926894D03*
D13*
X88051777Y-1256613D03*
X98969785Y-2597175D03*
D17*
X98010408Y-6307916D03*
X88084947Y-5089223D03*
X92791752Y-7782916D03*
X92791752Y-7782916D03*
%TD*%
D13*
%TO.C,S31*%
X80227705Y-28179376D03*
D15*
X82638927Y-25264155D03*
X88044990Y-26048046D03*
D13*
X89556235Y-34008488D03*
D15*
X88044990Y-26048046D03*
D14*
X84891970Y-31093932D03*
D15*
X91119408Y-30563348D03*
D34*
X85267632Y-24312560D03*
X93896765Y-32298834D03*
%TD*%
D15*
%TO.C,S7*%
X37915051Y15935506D03*
D13*
X42986602Y9616339D03*
D15*
X42749407Y13392083D03*
X32773767Y14089648D03*
D13*
X32013398Y10383661D03*
D14*
X37500000Y10000000D03*
D15*
X37915051Y15935506D03*
D29*
X34648029Y16163959D03*
X46016429Y13163630D03*
%TD*%
D15*
%TO.C,S15*%
X58732967Y35527551D03*
D13*
X52735319Y30079550D03*
D15*
X53560251Y33771702D03*
D13*
X63693461Y29120836D03*
D14*
X58214390Y29600193D03*
D15*
X58732967Y35527551D03*
X63522198Y32900144D03*
D30*
X55470429Y35812987D03*
X66784735Y32614709D03*
%TD*%
D15*
%TO.C,S21*%
X72333864Y26190727D03*
D14*
X76914492Y21938628D03*
D15*
X77536436Y27856033D03*
X77536436Y27856033D03*
D13*
X82384362Y21363721D03*
X71444622Y22513535D03*
D15*
X82279083Y25145443D03*
D26*
X74279377Y28198364D03*
X85536142Y24803112D03*
%TD*%
D13*
%TO.C,S36*%
X119640854Y-63302576D03*
X112868578Y-54634458D03*
D14*
X116254716Y-58968517D03*
D17*
X116338583Y-65248084D03*
X110181968Y-57367977D03*
X111605453Y-62600920D03*
X111605453Y-62600920D03*
%TD*%
D13*
%TO.C,S8*%
X32013398Y10383661D03*
D14*
X37500000Y10000000D03*
D13*
X42986602Y9616339D03*
D17*
X32247105Y6558039D03*
X42222746Y5860474D03*
X37088437Y4114372D03*
X37088437Y4114372D03*
%TD*%
D14*
%TO.C,S3*%
X18000000Y17000000D03*
D15*
X13000000Y20750000D03*
X23000000Y20750000D03*
X18000000Y22950000D03*
D13*
X12500000Y17000000D03*
X23500000Y17000000D03*
D15*
X18000000Y22950000D03*
D28*
X14725000Y22950000D03*
X26275000Y20750000D03*
%TD*%
D15*
%TO.C,S13*%
X62040551Y15964834D03*
X57251320Y18592241D03*
X52078604Y16836392D03*
D13*
X62211814Y12185526D03*
X51253672Y13144240D03*
D15*
X57251320Y18592241D03*
D14*
X56732743Y12664883D03*
D30*
X53988782Y18877677D03*
X65303088Y15679399D03*
%TD*%
D13*
%TO.C,S19*%
X69667638Y5606663D03*
D15*
X70556880Y9283855D03*
X75759452Y10949161D03*
X80502099Y8238571D03*
D14*
X75137508Y5031756D03*
D15*
X75759452Y10949161D03*
D13*
X80607378Y4456849D03*
D26*
X72502393Y11291492D03*
X83759158Y7896240D03*
%TD*%
D15*
%TO.C,S25*%
X94235904Y3978756D03*
X94235904Y3978756D03*
X98930522Y1185807D03*
D13*
X98969785Y-2597175D03*
X88051777Y-1256613D03*
D14*
X93510781Y-1926894D03*
D15*
X89005060Y2404501D03*
D25*
X90985315Y4377878D03*
X102181110Y786685D03*
%TD*%
D14*
%TO.C,S4*%
X18000000Y17000000D03*
D13*
X12500000Y17000000D03*
X23500000Y17000000D03*
D17*
X13000000Y13200000D03*
X23000000Y13200000D03*
X18000000Y11100000D03*
X18000000Y11100000D03*
%TD*%
M02*
