M48
; DRILL file {KiCad (6.0.10)} date Thu Dec 29 01:24:34 2022
; FORMAT={-:-/ absolute / metric / decimal}
; #@! TF.CreationDate,2022-12-29T01:24:34+02:00
; #@! TF.GenerationSoftware,Kicad,Pcbnew,(6.0.10)
; #@! TF.FileFunction,NonPlated,1,2,NPTH
FMAT,2
METRIC
; #@! TA.AperFunction,NonPlated,NPTH,ComponentDrill
T1C0.900
; #@! TA.AperFunction,NonPlated,NPTH,ComponentDrill
T2C1.702
; #@! TA.AperFunction,NonPlated,NPTH,ComponentDrill
T3C3.000
; #@! TA.AperFunction,NonPlated,NPTH,ComponentDrill
T4C3.429
%
G90
G05
T1
X131.685Y19.077
X131.685Y19.077
X132.051Y22.055
X132.051Y22.055
T2
X12.5Y34.0
X12.5Y34.0
X12.5Y17.0
X12.5Y17.0
X12.5Y0.0
X12.5Y0.0
X23.5Y34.0
X23.5Y34.0
X23.5Y17.0
X23.5Y17.0
X23.5Y0.0
X23.5Y0.0
X32.013Y10.384
X32.013Y10.384
X33.199Y27.342
X33.199Y27.342
X34.385Y44.301
X34.385Y44.301
X42.987Y9.616
X42.987Y9.616
X44.172Y26.575
X44.172Y26.575
X45.358Y43.534
X45.358Y43.534
X51.254Y13.144
X51.254Y13.144
X52.735Y30.08
X52.735Y30.08
X54.217Y47.015
X54.217Y47.015
X62.212Y12.186
X62.212Y12.186
X63.693Y29.121
X63.693Y29.121
X65.175Y46.056
X65.175Y46.056
X69.668Y5.607
X69.668Y5.607
X71.445Y22.514
X71.445Y22.514
X73.222Y39.42
X73.222Y39.42
X80.228Y-28.179
X80.228Y-28.179
X80.607Y4.457
X80.607Y4.457
X82.384Y21.364
X82.384Y21.364
X84.161Y38.271
X84.161Y38.271
X88.052Y-1.257
X88.052Y-1.257
X89.556Y-34.008
X89.556Y-34.008
X90.124Y15.617
X90.124Y15.617
X92.195Y32.49
X92.195Y32.49
X97.766Y-39.899
X97.766Y-39.899
X98.97Y-2.597
X98.97Y-2.597
X101.042Y14.276
X101.042Y14.276
X103.113Y31.149
X103.113Y31.149
X105.94Y-47.259
X105.94Y-47.259
X112.869Y-54.634
X112.869Y-54.634
X119.641Y-63.303
X119.641Y-63.303
T3
X13.0Y37.75
X13.0Y20.75
X13.0Y3.75
X18.0Y39.95
X18.0Y39.95
X18.0Y22.95
X18.0Y22.95
X18.0Y5.95
X18.0Y5.95
X23.0Y37.75
X23.0Y20.75
X23.0Y3.75
X32.774Y14.09
X33.96Y31.048
X35.145Y48.007
X37.915Y15.936
X37.915Y15.936
X39.101Y32.894
X39.101Y32.894
X40.287Y49.853
X40.287Y49.853
X42.749Y13.392
X43.935Y30.351
X45.121Y47.309
X52.079Y16.836
X53.56Y33.772
X55.042Y50.707
X57.251Y18.592
X57.251Y18.592
X58.733Y35.528
X58.733Y35.528
X60.215Y52.463
X60.215Y52.463
X62.041Y15.965
X63.522Y32.9
X65.004Y49.835
X70.557Y9.284
X72.334Y26.191
X74.111Y43.098
X75.759Y10.949
X75.759Y10.949
X77.536Y27.856
X77.536Y27.856
X79.313Y44.763
X79.313Y44.763
X80.502Y8.239
X82.279Y25.145
X82.639Y-25.264
X84.056Y42.052
X88.045Y-26.048
X88.045Y-26.048
X89.005Y2.405
X91.077Y19.278
X91.119Y-30.563
X93.149Y36.151
X94.236Y3.979
X94.236Y3.979
X96.308Y20.852
X96.308Y20.852
X98.379Y37.725
X98.379Y37.725
X98.931Y1.186
X100.647Y-37.447
X101.002Y18.059
X103.074Y34.932
X105.834Y-39.157
X105.834Y-39.157
X108.078Y-44.138
X116.131Y-52.72
X120.943Y-55.305
X120.943Y-55.305
X122.288Y-60.6
T4
X18.0Y34.0
X18.0Y34.0
X18.0Y17.0
X18.0Y17.0
X18.0Y0.0
X18.0Y0.0
X37.5Y10.0
X37.5Y10.0
X38.686Y26.959
X38.686Y26.959
X39.872Y43.917
X39.872Y43.917
X56.733Y12.665
X56.733Y12.665
X58.214Y29.6
X58.214Y29.6
X59.696Y46.536
X59.696Y46.536
X75.138Y5.032
X75.138Y5.032
X76.914Y21.939
X76.914Y21.939
X78.691Y38.846
X78.691Y38.846
X84.892Y-31.094
X84.892Y-31.094
X93.511Y-1.927
X93.511Y-1.927
X95.583Y14.946
X95.583Y14.946
X97.654Y31.82
X97.654Y31.82
X101.853Y-43.579
X101.853Y-43.579
X116.255Y-58.969
X116.255Y-58.969
T0
M30
