M48
; DRILL file {KiCad (6.0.10)} date Thu Dec 29 01:24:34 2022
; FORMAT={-:-/ absolute / metric / decimal}
; #@! TF.CreationDate,2022-12-29T01:24:34+02:00
; #@! TF.GenerationSoftware,Kicad,Pcbnew,(6.0.10)
; #@! TF.FileFunction,Plated,1,2,PTH
FMAT,2
METRIC
; #@! TA.AperFunction,Plated,PTH,ComponentDrill
T1C0.300
; #@! TA.AperFunction,Plated,PTH,ComponentDrill
T2C0.400
; #@! TA.AperFunction,Plated,PTH,ComponentDrill
T3C0.700
; #@! TA.AperFunction,Plated,PTH,ComponentDrill
T4C1.100
; #@! TA.AperFunction,Plated,PTH,ComponentDrill
T5C1.270
%
G90
G05
T1
X130.687Y13.659
T2
X114.838Y-2.5
X115.147Y0.021
X115.457Y2.542
X115.767Y5.063
X116.076Y7.584
X116.351Y-2.686
X116.386Y10.105
X116.66Y-0.165
X116.695Y12.626
X116.97Y2.356
X117.005Y15.147
X117.279Y4.877
X117.314Y17.668
X117.589Y7.398
X117.624Y20.189
X117.898Y9.919
X117.933Y22.71
X118.208Y12.44
X118.243Y25.231
X118.517Y14.961
X118.827Y17.483
X119.136Y20.004
X119.446Y22.525
X119.756Y25.046
T3
X122.586Y-11.29
X122.769Y-9.801
T4
X108.031Y-1.665
X108.341Y0.857
X108.65Y3.378
X108.96Y5.899
X109.269Y8.42
X109.579Y10.941
X109.888Y13.462
X110.198Y15.983
X110.507Y18.504
X110.817Y21.025
X111.126Y23.546
X111.436Y26.067
X111.436Y26.067
X123.157Y-3.522
X123.467Y-1.001
X123.776Y1.52
X124.086Y4.041
X124.396Y6.562
X124.705Y9.084
X125.015Y11.605
X125.324Y14.126
X125.634Y16.647
X125.943Y19.168
X126.253Y21.689
X126.562Y24.21
X126.562Y24.21
T5
X13.0Y30.2
X13.0Y13.2
X13.0Y-3.8
X18.0Y28.1
X18.0Y28.1
X18.0Y11.1
X18.0Y11.1
X18.0Y-5.9
X18.0Y-5.9
X23.0Y30.2
X23.0Y13.2
X23.0Y-3.8
X32.247Y6.558
X33.433Y23.517
X34.619Y40.475
X37.088Y4.114
X37.088Y4.114
X38.274Y21.073
X38.274Y21.073
X39.46Y38.032
X39.46Y38.032
X42.223Y5.86
X43.409Y22.819
X44.594Y39.778
X51.421Y9.315
X52.902Y26.25
X54.384Y43.186
X56.219Y6.787
X56.219Y6.787
X57.7Y23.723
X57.7Y23.723
X59.182Y40.658
X59.182Y40.658
X61.383Y8.444
X62.864Y25.379
X64.346Y42.314
X69.768Y1.775
X71.545Y18.682
X73.322Y35.589
X74.521Y-0.836
X74.521Y-0.836
X76.298Y16.071
X76.298Y16.071
X78.075Y32.978
X78.075Y32.978
X78.638Y-31.667
X79.713Y0.73
X81.49Y17.637
X81.765Y-36.097
X81.765Y-36.097
X83.267Y34.544
X87.119Y-36.966
X88.085Y-5.089
X90.157Y11.784
X92.229Y28.657
X92.792Y-7.783
X92.792Y-7.783
X94.864Y9.09
X94.864Y9.09
X95.595Y-43.057
X96.935Y25.964
X96.935Y25.964
X97.905Y-47.964
X97.905Y-47.964
X98.01Y-6.308
X100.082Y10.565
X102.154Y27.439
X103.026Y-49.749
X110.182Y-57.368
X111.605Y-62.601
X111.605Y-62.601
X116.339Y-65.248
T0
M30
